<!--?xml version="1.0" encoding="iso-8859-1"?-->
<!-- Generator: Adobe Illustrator 22.1.0, SVG Export Plug-In . SVG Version: 6.00 Build 0)  -->
<svg version="1.1" id="_x34_" xmlns="http://www.w3.org/2000/svg" xmlns:xlink="http://www.w3.org/1999/xlink" x="0px" y="0px" viewBox="0 0 512 351.6" style="opacity: 1; width: 256px;" xml:space="preserve">
<style type="text/css">
	.st0{fill:#064F37;}
	.st1{fill:#FFFFFF;}
	.st2{fill:#C8C8C8;}
	.st3{opacity:5.000000e-02;fill:#040000;}
</style>
<g>
	<path class="st0" d="M507.8,13.4v324.9c0,5-4.1,9.1-9.1,9.1H13.4c-5,0-9.1-4.1-9.1-9.1V13.4c0-5,4.1-9.1,9.1-9.1h485.3
		C503.7,4.2,507.8,8.3,507.8,13.4z"></path>
	<g>
		<rect x="99.5" y="275.7" class="st1" width="62.4" height="8.8"></rect>
		<path class="st1" d="M215.9,248.8h-8.3v11.1h-26v7.7H201c-0.8,14.5-2.3,30-20.6,38.5c2.1,1.7,4.6,4.6,5.7,6.8
			c13.6-6.8,19.2-17.4,21.8-28.9h18.7c-1,12.3-2.2,18.3-3.9,19.8c-0.8,0.7-1.8,0.9-3.3,0.9c-2,0-6.7,0-11.4-0.5
			c1.5,2.3,2.7,5.6,2.8,7.9c4.6,0.2,9.1,0.3,11.6,0c3.2-0.3,5.3-0.9,7.3-3.1c2.7-3,4.1-10.6,5.4-29c0.2-1.1,0.3-3.5,0.3-3.5h-26.2
			c0.3-2.9,0.5-5.9,0.8-8.8h32.8v-7.7h-26.8V248.8z"></path>
		<path class="st1" d="M280.4,260.9c-2.4-3.2-7.7-7.6-11.8-10.4l-5.5,5.1c4.1,3.1,9.2,7.8,11.3,11.1L280.4,260.9z"></path>
		<path class="st1" d="M292.6,303.8c-6.9-0.3-11.6-2.2-14.2-6.7v-21.7H262v7.4h8.6v14.8c-3.1,2.3-6.6,4.6-9.5,6.2l3.7,8.1
			c3.8-2.9,7-5.5,10.1-8.2c4.1,5.2,9.4,7.2,17.6,7.5c8.3,0.3,22.7,0.2,31-0.2c0.3-2.3,1.6-6,2.5-7.9
			C316.8,303.9,300.7,304.1,292.6,303.8z"></path>
		<path class="st1" d="M284.1,301h7.6v-10.2h7.8v9.9h7.2v-9.9h8v3.1c0,0.7-0.2,1-1,1c-0.7,0-3.1,0-5.2-0.1c0.9,1.7,1.7,4.3,2,6.3
			c4.1,0,7,0,9.2-1.2c2.2-1.1,2.8-2.8,2.8-6v-28h-8.2c-1.2-0.7-2.6-1.4-4.1-2.1c4.4-2.7,8.7-6,12.1-9.2l-4.8-3.9l-1.5,0.4h-31.1v6.1
			h24.1c-1.7,1.2-3.5,2.5-5.4,3.6c-2.8-1.2-5.6-2.3-8-3.2l-5.2,4.4c2.8,1.1,6.1,2.4,9.1,3.9h-15.2V301z M306.7,271.9h8v3.7h-8V271.9
			z M306.7,281.1h8v3.8h-8V281.1z M291.7,271.9h7.8v3.7h-7.8V271.9z M291.7,281.1h7.8v3.8h-7.8V281.1z"></path>
		<path class="st1" d="M361,263.7c-4.4,7.7-11.8,15.6-18.7,20.3c1.6,1.7,4.4,5.3,5.5,7c1.8-1.5,3.7-3.2,5.5-5v26.5h8.1v-35.4
			c2.7-3.4,5.2-6.9,7.3-10.4L361,263.7z"></path>
		<rect x="371.4" y="252.9" class="st1" width="33" height="7.7"></rect>
		<path class="st1" d="M368.6,279.3h20v23.6c0,1-0.5,1.3-1.7,1.3c-1.2,0.1-5.7,0.1-9.6-0.1c1.1,2.3,2.1,5.9,2.4,8.2
			c6,0,10.4-0.1,13.2-1.3c3-1.2,3.8-3.5,3.8-7.8v-23.8h9.3v-7.7h-37.5V279.3z"></path>
		<path class="st1" d="M366.2,252.3l-7.8-3.2c-3.3,4.8-9.7,10.9-15.3,14.5c1.4,1.6,3.5,4.8,4.5,6.6
			C354,265.6,361.3,258.6,366.2,252.3z"></path>
		<path class="st1" d="M498.6,4.2H13.3c-5,0-9.1,4.2-9.1,9.2v200.9h503.6V13.4C507.8,8.4,503.6,4.2,498.6,4.2z M437.5,139.5H168.9
			v34.7l-94.5-62.8l94.5-62.9v34.7h268.6V139.5z"></path>
	</g>
	<path class="st2" d="M498.6,0H13.4C6,0,0,6,0,13.4v324.9c0,7.4,6,13.4,13.4,13.4h485.3c7.4,0,13.4-6,13.4-13.4V13.4
		C512,6,506,0,498.6,0z M503.6,338.3c0,2.7-2.2,4.9-4.9,4.9H13.4c-2.7,0-4.9-2.2-4.9-4.9V13.4c0-2.7,2.2-4.9,4.9-4.9h485.3
		c2.7,0,4.9,2.2,4.9,4.9V338.3z"></path>
	<path class="st3" d="M512,45.6v292.7c0,7.4-6,13.4-13.4,13.4H60.9l6.2-4.2l6.2-4.2l86.5-58.7l5.3-3.6l19.7-13.3l11.4-7.7l14.6-9.9
		l1.7-1.2l50.9-34.5l110.3-74.8l60.6-41.1l69.3-47l0.9-0.6L512,45.6z"></path>
</g>
</svg>
